<svg xmlns="http://www.w3.org/2000/svg" xmlns:xlink="http://www.w3.org/1999/xlink" width="1080" zoomAndPan="magnify" viewBox="0 0 810 809.999993" height="1080" preserveAspectRatio="xMidYMid meet" version="1.0"><defs><clipPath id="bad4051f2d"><path d="M 434 17.816406 L 685 17.816406 L 685 266 L 434 266 Z M 434 17.816406 " clip-rule="nonzero"/></clipPath><clipPath id="e329fd09f8"><path d="M 539.925781 250.285156 L 715 250.285156 L 715 422.816406 L 539.925781 422.816406 Z M 539.925781 250.285156 " clip-rule="nonzero"/></clipPath><clipPath id="9503b1ced6"><path d="M 696.917969 227.140625 L 795.550781 227.140625 L 795.550781 325 L 696.917969 325 Z M 696.917969 227.140625 " clip-rule="nonzero"/></clipPath><clipPath id="92297668d2"><path d="M 276.167969 32 L 430 32 L 430 184 L 276.167969 184 Z M 276.167969 32 " clip-rule="nonzero"/></clipPath></defs><path fill="#ffffff" d="M 206.367188 749.890625 L 206.367188 699.265625 L 3.859375 699.265625 L 3.859375 272.558594 L 206.367188 272.558594 L 206.367188 8.574219 L 631.324219 8.574219 L 806.648438 184.007812 L 806.648438 800.496094 L 206.367188 800.496094 Z M 206.367188 749.890625 " fill-opacity="1" fill-rule="nonzero"/><path fill="#737373" d="M 202.535156 753.695312 C 202.535156 711.105469 202.714844 701.6875 202.714844 701.6875 L 213.660156 702.15625 L 213.382812 793.472656 L 799.191406 793.472656 L 799.191406 193.191406 L 766.644531 193.191406 C 740.511719 193.191406 684.425781 192.992188 684.425781 192.992188 L 663.386719 181.382812 L 795.667969 180.535156 L 632.851562 17.867188 L 632.851562 51.289062 C 632.851562 78.582031 632.707031 100.742188 632.707031 100.742188 C 632.707031 100.742188 622.003906 88.925781 622.003906 100.980469 C 622.003906 113.03125 632.511719 104.34375 632.511719 104.34375 C 632.511719 104.34375 632.851562 122.074219 632.851562 138.949219 C 632.851562 155.824219 632.90625 175.703125 632.90625 175.703125 C 632.90625 175.703125 622.003906 164.863281 622.003906 176.917969 L 622.003906 193.191406 L 278.480469 193.191406 L 278.480469 160.644531 L 622.003906 160.644531 L 622.003906 117.25 L 278.480469 117.25 L 278.480469 84.707031 L 622.003906 84.707031 L 622.003906 16 L 213.382812 16 L 213.933594 275.105469 L 202.433594 274.375 C 202.433594 274.375 202.53125 252.050781 202.53125 137.140625 L 202.53125 5.152344 L 634.714844 5.152344 L 810.039062 180.585938 L 810.039062 804.316406 L 202.53125 804.316406 Z M 278.472656 713.917969 L 278.472656 703.070312 L 356.21875 703.070312 C 422.917969 703.070312 388.046875 700.257812 388.046875 695.601562 C 388.046875 690.867188 453.050781 692.21875 584.035156 692.21875 L 734.101562 692.21875 L 734.101562 724.765625 L 278.472656 724.765625 Z M 433.964844 632.554688 L 433.964844 616.28125 L 734.097656 616.28125 L 734.097656 648.828125 L 433.964844 648.828125 Z M 433.964844 556.617188 L 433.964844 540.34375 L 734.097656 540.34375 L 734.097656 572.886719 L 433.964844 572.886719 Z M 433.964844 480.679688 L 433.964844 464.40625 L 734.097656 464.40625 L 734.097656 496.949219 L 433.964844 496.949219 Z M 433.964844 404.738281 L 433.964844 388.46875 L 734.097656 388.46875 L 734.097656 421.011719 L 433.964844 421.011719 Z M 433.964844 328.800781 L 433.964844 312.53125 L 734.097656 312.53125 L 734.097656 345.074219 L 433.964844 345.074219 Z M 278.472656 252.863281 L 278.472656 236.59375 L 734.097656 236.59375 L 734.097656 269.136719 L 278.472656 269.136719 Z M 278.472656 252.863281 " fill-opacity="1" fill-rule="nonzero"/><path fill="#737373" d="M 621.984375 176.9375 C 621.984375 164.882812 621.984375 160.664062 621.984375 160.664062 L 632.832031 160.554688 L 632.832031 180.984375 L 733.328125 180.984375 L 733.691406 193.058594 C 733.691406 193.058594 725.445312 193.203125 678.035156 193.203125 L 621.984375 193.203125 Z M 621.984375 117.269531 L 621.984375 84.726562 L 632.636719 84.960938 L 632.691406 117.269531 Z M 621.984375 117.269531 " fill-opacity="1" fill-rule="nonzero"/><path fill="#840623" d="M 0.121094 486.226562 L 0.121094 269.257812 L 434.058594 269.257812 L 434.058594 703.195312 L 0.121094 703.195312 Z M 401.515625 538.660156 L 401.515625 406.671875 L 393.136719 406.671875 C 385.832031 406.671875 377.539062 420.425781 328.285156 514.25 L 271.808594 621.832031 L 206.441406 623.910156 L 204.4375 519.386719 L 144.324219 623.640625 L 86.910156 623.640625 L 86.910156 406.675781 L 57.980469 406.675781 L 57.980469 363.28125 L 188.164062 363.28125 L 188.164062 406.675781 L 155.617188 406.675781 L 156.214844 484.421875 L 214.703125 363.28125 L 274.949219 363.28125 L 275.03125 488.039062 L 298.335938 448.261719 L 321.636719 408.484375 L 296.640625 406.238281 L 296.640625 363.28125 L 401.507812 363.28125 L 401.507812 301.808594 L 32.65625 301.808594 L 32.65625 670.660156 L 401.507812 670.660156 Z M 401.515625 538.660156 " fill-opacity="1" fill-rule="nonzero"/><g clip-path="url(#bad4051f2d)"><path fill="#840623" d="M 559.296875 217.269531 C 518.359375 217.269531 485.179688 184.085938 485.179688 143.15625 C 485.179688 102.21875 518.359375 69.039062 559.296875 69.039062 C 600.226562 69.039062 633.410156 102.21875 633.410156 143.15625 C 633.410156 184.085938 600.226562 217.269531 559.296875 217.269531 Z M 654.09375 152.484375 L 684.453125 136.425781 C 683.992188 127.78125 682.660156 119.371094 680.539062 111.277344 L 647.308594 106.679688 C 644.585938 100.117188 641.15625 93.925781 637.105469 88.203125 L 649.949219 56.605469 C 644.300781 50.6875 638.074219 45.328125 631.367188 40.605469 L 602.921875 58.460938 C 596.28125 55.03125 589.183594 52.367188 581.75 50.570312 L 571.367188 18.394531 C 567.394531 18.015625 563.367188 17.820312 559.296875 17.820312 C 555.222656 17.820312 551.195312 18.015625 547.222656 18.394531 L 536.84375 50.570312 C 529.40625 52.367188 522.308594 55.03125 515.667969 58.460938 L 487.222656 40.605469 C 480.515625 45.328125 474.289062 50.6875 468.640625 56.605469 L 481.484375 88.203125 C 477.433594 93.925781 474.003906 100.117188 471.28125 106.679688 L 438.050781 111.277344 C 435.929688 119.371094 434.59375 127.78125 434.140625 136.425781 L 464.496094 152.484375 C 465.117188 158.847656 466.363281 165.023438 468.171875 170.957031 L 445.582031 195.933594 C 449.335938 204.007812 453.925781 211.613281 459.238281 218.640625 L 492.875 211.417969 C 496.894531 215.328125 501.253906 218.894531 505.914062 222.054688 L 504.65625 255.984375 C 512.738281 259.902344 521.304688 262.980469 530.242188 265.101562 L 551.273438 238.066406 C 553.917969 238.285156 556.59375 238.40625 559.296875 238.40625 C 561.996094 238.40625 564.671875 238.285156 567.316406 238.066406 L 588.347656 265.101562 C 597.285156 262.980469 605.851562 259.902344 613.933594 255.984375 L 612.675781 222.054688 C 617.335938 218.894531 621.695312 215.328125 625.714844 211.417969 L 659.355469 218.640625 C 664.664062 211.613281 669.253906 204.007812 673.007812 195.933594 L 650.421875 170.957031 C 652.230469 165.023438 653.472656 158.847656 654.09375 152.484375 " fill-opacity="1" fill-rule="nonzero"/></g><g clip-path="url(#e329fd09f8)"><path fill="#840623" d="M 627.292969 389.664062 C 598.730469 389.664062 575.570312 366.503906 575.570312 337.941406 C 575.570312 309.375 598.730469 286.214844 627.292969 286.214844 C 655.859375 286.214844 679.015625 309.375 679.015625 337.941406 C 679.015625 366.503906 655.859375 389.664062 627.292969 389.664062 Z M 693.449219 344.453125 L 714.636719 333.246094 C 714.316406 327.210938 713.386719 321.34375 711.90625 315.695312 L 688.714844 312.484375 C 686.816406 307.910156 684.421875 303.585938 681.59375 299.59375 L 690.558594 277.539062 C 686.613281 273.414062 682.273438 269.667969 677.589844 266.375 L 657.742188 278.835938 C 653.105469 276.445312 648.152344 274.582031 642.964844 273.328125 L 635.71875 250.875 C 632.945312 250.609375 630.136719 250.472656 627.292969 250.472656 C 624.453125 250.472656 621.640625 250.609375 618.867188 250.875 L 611.625 273.328125 C 606.433594 274.582031 601.480469 276.445312 596.84375 278.835938 L 576.996094 266.375 C 572.316406 269.667969 567.972656 273.414062 564.027344 277.539062 L 572.992188 299.59375 C 570.167969 303.585938 567.769531 307.910156 565.871094 312.484375 L 542.679688 315.695312 C 541.199219 321.34375 540.269531 327.210938 539.949219 333.246094 L 561.136719 344.453125 C 561.570312 348.890625 562.4375 353.203125 563.699219 357.34375 L 547.9375 374.773438 C 550.558594 380.40625 553.757812 385.714844 557.464844 390.621094 L 580.941406 385.578125 C 583.746094 388.308594 586.789062 390.796875 590.039062 393 L 589.164062 416.679688 C 594.804688 419.414062 600.78125 421.5625 607.019531 423.042969 L 621.695312 404.175781 C 623.542969 404.332031 625.40625 404.414062 627.292969 404.414062 C 629.179688 404.414062 631.046875 404.332031 632.890625 404.175781 L 647.570312 423.042969 C 653.804688 421.5625 659.78125 419.414062 665.421875 416.679688 L 664.546875 393 C 667.796875 390.796875 670.839844 388.308594 673.648438 385.578125 L 697.121094 390.621094 C 700.828125 385.714844 704.027344 380.40625 706.648438 374.773438 L 690.886719 357.34375 C 692.148438 353.203125 693.019531 348.890625 693.449219 344.453125 " fill-opacity="1" fill-rule="nonzero"/></g><g clip-path="url(#9503b1ced6)"><path fill="#840623" d="M 746.253906 305.976562 C 730.128906 305.976562 717.058594 292.90625 717.058594 276.78125 C 717.058594 260.660156 730.128906 247.585938 746.253906 247.585938 C 762.375 247.585938 775.445312 260.660156 775.445312 276.78125 C 775.445312 292.90625 762.375 305.976562 746.253906 305.976562 Z M 783.59375 280.457031 L 795.550781 274.128906 C 795.371094 270.726562 794.847656 267.414062 794.011719 264.226562 L 780.921875 262.414062 C 779.847656 259.832031 778.496094 257.390625 776.902344 255.136719 L 781.960938 242.691406 C 779.738281 240.359375 777.285156 238.246094 774.644531 236.386719 L 763.441406 243.421875 C 760.824219 242.070312 758.027344 241.019531 755.097656 240.3125 L 751.007812 227.640625 C 749.445312 227.488281 747.859375 227.410156 746.253906 227.410156 C 744.648438 227.410156 743.0625 227.488281 741.5 227.640625 L 737.410156 240.3125 C 734.480469 241.019531 731.683594 242.070312 729.066406 243.421875 L 717.863281 236.386719 C 715.21875 238.246094 712.769531 240.359375 710.542969 242.691406 L 715.605469 255.136719 C 714.007812 257.390625 712.65625 259.832031 711.585938 262.414062 L 698.496094 264.226562 C 697.660156 267.414062 697.132812 270.726562 696.953125 274.128906 L 708.914062 280.457031 C 709.15625 282.964844 709.644531 285.398438 710.359375 287.734375 L 701.460938 297.570312 C 702.941406 300.75 704.75 303.746094 706.839844 306.515625 L 720.089844 303.671875 C 721.671875 305.210938 723.390625 306.613281 725.226562 307.859375 L 724.730469 321.226562 C 727.917969 322.769531 731.289062 323.984375 734.808594 324.816406 L 743.09375 314.167969 C 744.136719 314.253906 745.1875 314.300781 746.253906 314.300781 C 747.316406 314.300781 748.371094 314.253906 749.414062 314.167969 L 757.695312 324.816406 C 761.214844 323.984375 764.589844 322.769531 767.777344 321.226562 L 767.28125 307.859375 C 769.117188 306.613281 770.832031 305.210938 772.417969 303.671875 L 785.664062 306.515625 C 787.757812 303.746094 789.566406 300.75 791.042969 297.570312 L 782.148438 287.734375 C 782.855469 285.398438 783.351562 282.964844 783.59375 280.457031 " fill-opacity="1" fill-rule="nonzero"/></g><g clip-path="url(#92297668d2)"><path fill="#840623" d="M 352.996094 154.609375 C 327.902344 154.609375 307.554688 134.265625 307.554688 109.167969 C 307.554688 84.066406 327.902344 63.722656 352.996094 63.722656 C 378.097656 63.722656 398.441406 84.066406 398.441406 109.167969 C 398.441406 134.265625 378.097656 154.609375 352.996094 154.609375 Z M 411.121094 114.886719 L 429.738281 105.039062 C 429.457031 99.742188 428.636719 94.582031 427.335938 89.621094 L 406.960938 86.804688 C 405.292969 82.78125 403.191406 78.984375 400.707031 75.476562 L 408.582031 56.101562 C 405.117188 52.472656 401.300781 49.183594 397.1875 46.289062 L 379.75 57.238281 C 375.675781 55.136719 371.324219 53.5 366.765625 52.402344 L 360.402344 32.671875 C 357.964844 32.4375 355.496094 32.320312 352.996094 32.320312 C 350.5 32.320312 348.03125 32.4375 345.59375 32.671875 L 339.230469 52.402344 C 334.671875 53.5 330.320312 55.136719 326.25 57.238281 L 308.808594 46.289062 C 304.695312 49.183594 300.878906 52.472656 297.414062 56.101562 L 305.289062 75.476562 C 302.808594 78.984375 300.703125 82.78125 299.035156 86.804688 L 278.660156 89.621094 C 277.359375 94.582031 276.542969 99.742188 276.261719 105.039062 L 294.875 114.886719 C 295.253906 118.789062 296.019531 122.578125 297.128906 126.214844 L 283.277344 141.527344 C 285.578125 146.476562 288.390625 151.140625 291.648438 155.449219 L 312.273438 151.019531 C 314.738281 153.421875 317.410156 155.605469 320.269531 157.542969 L 319.5 178.34375 C 324.453125 180.75 329.707031 182.636719 335.1875 183.9375 L 348.078125 167.359375 C 349.703125 167.496094 351.339844 167.570312 352.996094 167.570312 C 354.65625 167.570312 356.292969 167.496094 357.917969 167.359375 L 370.8125 183.9375 C 376.292969 182.636719 381.542969 180.75 386.5 178.34375 L 385.726562 157.542969 C 388.585938 155.605469 391.257812 153.421875 393.722656 151.019531 L 414.347656 155.449219 C 417.601562 151.140625 420.417969 146.476562 422.71875 141.527344 L 408.871094 126.214844 C 409.980469 122.578125 410.742188 118.789062 411.121094 114.886719 " fill-opacity="1" fill-rule="nonzero"/></g></svg>